<?xml version="1.0" encoding="utf-8"?>
<!-- Generator: Adobe Illustrator 23.0.2, SVG Export Plug-In . SVG Version: 6.00 Build 0)  -->
<svg version="1.1" id="Layer_1" xmlns="http://www.w3.org/2000/svg" xmlns:xlink="http://www.w3.org/1999/xlink" x="0px" y="0px"
	 viewBox="0 0 841.9 595.3" style="enable-background:new 0 0 841.9 595.3;" xml:space="preserve">
<style type="text/css">
	.st0{stroke:#010101;stroke-linecap:round;stroke-linejoin:round;}
	.st1{fill:none;stroke:#010101;stroke-linecap:round;stroke-linejoin:round;}
</style>
<g>
	<path class="st0" d="M214.3,143.4v338.4c0,27.7-37.5,36.2-49.5,11.3c10.9,0.7,20-8,20-18.9V172.9
		C194.6,163.1,204.5,153.3,214.3,143.4z"/>
	
		<rect x="184.8" y="78.4" transform="matrix(0.7069 -0.7073 0.7073 0.7069 -7.4159 168.4374)" class="st0" width="29.4" height="29.4"/>
	<path class="st0" d="M587.7,448.2c-12,25-49.5,16.4-49.5-11.3V214.5l29.5,29.5v185.3C567.7,440.2,576.8,448.8,587.7,448.2z"/>
	<path class="st0" d="M508.8,238.7v198.2h-29.5V238.7c0-8.1-6.6-14.7-14.7-14.7s-14.7,6.6-14.7,14.7v97.7
		c-9.8,9.8-19.6,19.6-29.5,29.5V238.7c0-8.1-6.6-14.7-14.7-14.7s-14.7,6.6-14.7,14.7v198.2c0,27.7-37.5,36.2-49.5,11.3
		c10.9,0.7,20-8,20-18.9V238.7c0-38.2,45.2-58.4,73.6-32.9C463.6,180.3,508.8,200.5,508.8,238.7z"/>
	<path class="st1" d="M419.3,236.3c-0.2-0.4-0.4-0.8-0.5-1.2L419.3,236.3z"/>
	
		<rect x="538.2" y="149.5" transform="matrix(0.7071 -0.7071 0.7071 0.7071 45.7972 439.0944)" class="st0" width="29.4" height="29.4"/>
	<polygon class="st0" points="573.8,93.2 552.9,114 532.1,93.2 552.9,72.3 	"/>
	<path class="st1" d="M302.6,238.7v47.6h-29.5v-47.6c0-8.1,6.6-14.7,14.7-14.7C296,224,302.6,230.6,302.6,238.7z"/>
	<path class="st0" d="M332.1,315.7v-77c0-24.4-19.8-44.2-44.2-44.2c-24.4,0-44.2,19.8-44.2,44.2v154c0,24.4,19.8,44.2,44.2,44.2
		c24.4,0,44.2-19.8,44.2-44.2v-18.1c-9.8-9.8-19.6-19.6-29.5-29.5v47.6c0,8.1-6.6,14.7-14.7,14.7c-8.1,0-14.7-6.6-14.7-14.7v-77
		H332.1z M273.2,238.7c0-8.1,6.6-14.7,14.7-14.7c8.1,0,14.7,6.6,14.7,14.7v47.6h-29.5V238.7z"/>
	<path class="st1" d="M302.6,238.7v47.6h-29.5v-47.6c0-8.1,6.6-14.7,14.7-14.7C296,224,302.6,230.6,302.6,238.7z"/>
	<path class="st1" d="M302.6,238.7v47.6h-29.5v-47.6c0-8.1,6.6-14.7,14.7-14.7C296,224,302.6,230.6,302.6,238.7z"/>
	<path class="st0" d="M125.9,101.8v95.3C97.2,186.9,67,208.2,67,238.7v154c0,24.4,19.8,44.2,44.2,44.2c24.4,0,44.2-19.8,44.2-44.2
		V72.3C145.6,82.2,135.7,92,125.9,101.8z M125.9,392.8c0,8.1-6.6,14.7-14.7,14.7c-8.1,0-14.7-6.6-14.7-14.7v-154
		c0-8.1,6.6-14.7,14.7-14.7c8.1,0,14.7,6.6,14.7,14.7V392.8z"/>
	<path class="st1" d="M125.9,238.7v154c0,8.1-6.6,14.7-14.7,14.7c-8.1,0-14.7-6.6-14.7-14.7v-154c0-8.1,6.6-14.7,14.7-14.7
		C119.3,224,125.9,230.6,125.9,238.7z"/>
	<path class="st1" d="M125.9,238.7v154c0,8.1-6.6,14.7-14.7,14.7c-8.1,0-14.7-6.6-14.7-14.7v-154c0-8.1,6.6-14.7,14.7-14.7
		C119.3,224,125.9,230.6,125.9,238.7z"/>
	
		<rect x="420.4" y="401.4" transform="matrix(0.7071 -0.7071 0.7071 0.7071 -166.7808 429.5613)" class="st0" width="29.4" height="29.4"/>
	<path class="st0" d="M774.9,315.7v-29.5h-30.5V101.8c-9.8-9.8-19.6-19.6-29.5-29.5v213.9h-29.4v-47.6c0-24.4-19.8-44.2-44.2-44.2
		c-24.4,0-44.2,19.8-44.2,44.2v77H656v77c0,8.1-6.6,14.7-14.7,14.7s-14.7-6.6-14.7-14.7v-47.6c-9.8,9.8-19.6,19.6-29.5,29.5v18.1
		c0,24.4,19.8,44.2,44.2,44.2c24.4,0,44.2-19.8,44.2-44.2v-77h29.4v166.1c0,27.7,37.5,36.2,49.5,11.3c-10.9,0.7-20-8-20-18.9V315.7
		H774.9z M656,286.3h-29.5v-47.6c0-8.1,6.6-14.7,14.7-14.7s14.7,6.6,14.7,14.7V286.3z"/>
	<path class="st1" d="M656,238.7v47.6h-29.5v-47.6c0-8.1,6.6-14.7,14.7-14.7S656,230.6,656,238.7z"/>
	<path class="st1" d="M656,238.7v47.6h-29.5v-47.6c0-8.1,6.6-14.7,14.7-14.7S656,230.6,656,238.7z"/>
</g>
</svg>
